PathFileType	4	(X/Y/Z)	C:/Users/beibeiliu/ov580/test_trc/User3\sequence.39_training_dense_right.trc
DataRate	CameraRate	NumFrames	NumMarkers	Units	OrigDataRate	OrigDataStartFrame	OrigNumFrames
120	120	12	19	mm	120	57	84
Frame#	Time	ThumbCMC			ThumbMCP			ThumbIP			ThumbTip			IndexMCP			IndexPIP			IndexTip			MiddleMCP			MiddlePIP			MiddleTip			RingMCP			RingPIP			RingTip			PinkyMCP			PinkyPIP			PinkyTip			BackHand1			BackHand2			BackHand3	
		X0	Y0	Z0	X1	Y1	Z1	X2	Y2	Z2	X3	Y3	Z3	X4	Y4	Z4	X5	Y5	Z5	X6	Y6	Z6	X7	Y7	Z7	X8	Y8	Z8	X9	Y9	Z9	X10	Y10	Z10	X11	Y11	Z11	X12	Y12	Z12	X13	Y13	Z13	X14	Y14	Z14	X15	Y15	Z15	X16	Y16	Z16	X17	Y17	Z17	X18	Y18	Z18	
56	0.466667	189.825	9.57411	16.0865	170.754	28.4455	-8.28613	155.906	37.2697	-30.9668	139.408	41.0468	-48.278	193.504	-16.0885	-56.5196	190.274	-6.15185	-79.3691	178.463	3.52075	-103.79	179.809	-37.7106	-56.3795	169.085	-33.38	-82.7528	150.878	-18.1085	-108.567	163.573	-47.5579	-44.5773	148.919	-48.3832	-71.0796	130.418	-37.7525	-89.0894	148.296	-57.6337	-26.2705	132.634	-65.4809	-44.8795	116.385	-60.9039	-64.9428	177.662	-52.5242	7.25381	181.557	-51.0777	35.7426	202.119	-28.6325	13	
57	0.475	190.586	11.3569	17.6623	171.993	30.4819	-9.55772	156.136	42.8706	-32.8755	141.713	43.7307	-44.7086	195.369	-13.2331	-54.3829	188.768	-6.24981	-81.0846	176.215	3.98177	-103.494	177.263	-37.2767	-56.4149	168.672	-30.3885	-86.2048	150.635	-18.5308	-108.461	160.639	-48.3977	-43.6805	150.636	-46.7364	-69.847	134.646	-33.9608	-92.0778	145.225	-60.1531	-25.9872	136.257	-62.3533	-45.7077	118.194	-60.2709	-68.6815	180.279	-49.7569	6.48951	180.444	-51.1437	32.9254	201.701	-28.7114	13.264	
58	0.483333	192.389	8.95715	15.9223	174.714	29.3075	-5.92204	160.589	41.3984	-29.2414	141.377	38.3204	-46.932	195.807	-15.9172	-53.2866	192.679	-4.63549	-81.5656	181.351	4.58815	-101.603	180.313	-37.5654	-54.1096	167.457	-31.677	-85.8535	151.029	-11.8623	-109.159	165.981	-46.1819	-44.7902	148.496	-44.5324	-70.4145	133.129	-29.1893	-86.8889	147.233	-59.0938	-24.2306	135.879	-62.6895	-46.0976	120.02	-58.1291	-66.783	177.785	-51.5347	8.95966	181.496	-51.5465	39.0105	204.106	-29.6985	16.2974	
59	0.491667	194.66	5.75135	18.0264	178.839	26.9039	-8.43066	160.091	27	-33.0079	143.119	26.0777	-47.482	203.199	-16.7118	-52.2389	196.306	-10.0857	-78.5689	183.153	-1.11441	-101.094	183.788	-39.2153	-56.917	172.042	-30.8232	-84.6759	152.51	-11.1301	-101.559	166.334	-49.5585	-45.0564	149.773	-41.8995	-69.4869	130.139	-20.7465	-77.0864	151.154	-60.1853	-22.405	139.151	-63.4701	-45.3727	127.003	-51.9315	-64.636	181.871	-53.2697	5.10072	184.287	-53.3421	39.437	207.106	-33.1439	18.5934	
60	0.5	196.638	8.78769	20.5682	177.226	18.2183	-8.34547	159.95	20.5874	-34.3196	141.487	13.1869	-51.3832	206.76	-19.2872	-53.6936	200.549	-7.52661	-80.9273	187.939	2.94469	-101.966	192.269	-38.1661	-52.8821	179.785	-27.3059	-81.6199	147.813	-6.29081	-95.1402	169.897	-49.3096	-47.7559	152.624	-38.1813	-66.0308	130.87	-14.2283	-66.5556	157.459	-62.4924	-23.9648	150.015	-59.5702	-51.0435	131.618	-50.993	-65.1467	187.948	-56.4147	7.89339	189.092	-54.6001	38.9812	211.791	-32.3231	16.6472	
61	0.508333	189.038	12.2542	18.2802	166.959	24.494	-7.71797	149.711	19.1149	-35.5137	137.049	3.54137	-48.1171	207.81	-7.09327	-48.2184	197.678	-1.27795	-78.7549	185.919	10.6299	-96.9813	193.33	-32.5021	-51.8743	180.015	-19.7236	-82.617	149.944	-2.28659	-91.6705	178.124	-41.6978	-46.6087	159.309	-35.2087	-66.5761	131.882	-16.7406	-64.4024	169.462	-58.9606	-30.048	157.81	-60.955	-50.0512	138.643	-45.6501	-70.289	193.377	-49.9198	6.26576	194.008	-49.3662	37.4534	213.674	-19.2521	18.6405	
62	0.516667	179.503	19.9628	19.8386	155.384	25.365	-7.0333	138.95	19.2724	-36.651	127.185	6.14606	-50.6408	199.924	2.29152	-48.555	191.523	8.8017	-74.9817	176.43	20.519	-98.0338	193.109	-21.7516	-58.4065	178.139	-11.8564	-82.68	142.495	-1.79559	-93.7485	178.034	-38.156	-45.9843	157.734	-28.6696	-70.7282	126.79	-15.7053	-67.6876	170.402	-56.828	-29.0431	160.605	-55.8728	-54.883	141.151	-44.5475	-71.2068	195.319	-40.3387	7.84959	194.639	-43.5018	38.534	206.734	-10.1702	17.0704	
63	0.525	170.159	24.8444	17.8294	145.539	29.56	-7.3097	127.918	27.6011	-33.171	114.336	11.8906	-51.4856	191.195	9.39489	-50.9687	182.968	22.7533	-78.5832	164.842	23.8311	-99.3027	187.17	-15.2932	-57.0102	174.676	-8.68277	-82.8419	139.183	-1.7777	-101.765	175.086	-34.1504	-47.0722	157.094	-31.4183	-71.7452	128.885	-21.7395	-77.4338	167.666	-52.8242	-30.7467	160.511	-53.5502	-53.2798	140.065	-50.6208	-73.0039	193.439	-35.6765	2.48882	191.474	-36.4819	36.5531	200.765	-1.37733	15.4655	
64	0.533333	165.395	26.3202	22.6886	138.39	35.0352	-8.01481	119.131	34.0429	-28.1546	106.377	17.4974	-47.6384	186.783	16.6699	-50.4917	175.126	26.2169	-80.5381	159.562	28.3035	-100.398	182.734	-8.63908	-58.5645	168.195	-7.60361	-85.325	141.595	2.92088	-105.809	170.296	-30.8306	-49.1357	150.895	-30.7699	-76.5969	128.62	-21.4132	-84.9093	162.824	-48.8239	-33.1627	152.9	-53.9596	-56.3809	134.517	-54.2599	-73.9252	186.908	-34.1185	0.525019	187.779	-35.2151	33.6426	195.338	-1.29688	16.0349	
65	0.541667	166.16	27.0091	20.8354	139.814	31.9474	-4.58327	120.332	32.0135	-27.779	105.768	17.7739	-42.8433	184.889	12.7791	-50.5297	173.163	18.4301	-79.5129	161.219	25.4128	-98.2165	177.95	-14.9411	-61.0174	164.572	-8.23442	-84.0528	138.806	4.1357	-102.696	165.711	-28.6626	-50.9526	147.619	-25.5503	-73.3807	119.627	-13.8798	-80.4667	157.764	-48.4253	-34.0388	144.644	-53.2144	-56.65	129.816	-48.7106	-72.1476	183.7	-35.1084	4.17813	184.414	-34.0002	35.3411	196.354	-5.69339	13.3733	
66	0.55	171.6	25.4379	20.7933	145.547	31.1928	-3.8339	125.679	27.9186	-31.4291	112.336	11.642	-42.782	186.197	6.98578	-53.1574	180.575	17.0242	-76.6489	164.456	24.5895	-101.255	178.268	-16.7053	-56.005	162.141	-9.16547	-83.0964	129.501	5.03654	-96.1669	161.145	-31.7823	-51.0617	138	-23.5796	-69.5241	114.839	-8.02279	-67.7707	155.59	-49.6068	-30.8615	145.02	-51.6321	-50.91	122.317	-45.8129	-69.252	182.74	-40.7689	2.17514	182.97	-38.5984	34.0452	197.1	-8.474	16.9742	
67	0.558333	176.643	24.3032	21.2255	150.769	29.0941	-5.66584	132.347	21.443	-30.8416	116.676	10.353	-43.6594	190.893	3.27392	-52.3213	183.85	14.4393	-78.106	168.184	19.7926	-99.8972	180.094	-16.1847	-59.2319	162.544	-11.3092	-81.4625	131.2	4.50548	-89.2822	162.797	-34.1742	-45.0627	141.238	-23.9793	-65.3355	115.301	-6.25348	-60.3254	155.346	-52.2055	-28.6578	144.515	-49.1299	-55.1846	124.367	-42.38	-67.2575	184.814	-40.5822	6.39235	185.193	-42.6426	38.0296	202.108	-9.51222	14.8355	
